<?xml version="1.0" encoding="utf-8"?>
<!-- Generator: Adobe Illustrator 23.0.3, SVG Export Plug-In . SVG Version: 6.00 Build 0)  -->
<svg version="1.1" id="Capa_1" xmlns="http://www.w3.org/2000/svg" xmlns:xlink="http://www.w3.org/1999/xlink" x="0px" y="0px"
	 viewBox="0 0 466 466" style="enable-background:new 0 0 466 466;" xml:space="preserve">
<style type="text/css">
	.st0{fill:url(#SVGID_1_);}
</style>
<linearGradient id="SVGID_1_" gradientUnits="userSpaceOnUse" x1="4.5603" y1="232.9909" x2="461.423" y2="232.9909">
	<stop  offset="0" style="stop-color:#88B14B"/>
	<stop  offset="1" style="stop-color:#0C4C8A"/>
</linearGradient>
<path class="st0" d="M372.7,236.5c-2.7-3.5-7.7-4.3-11.2-1.6c-1.7,1.3-2.8,3.2-3.1,5.3l-4.4,31.1c-0.1,0.4-0.2,0.8-0.4,1.2
	c8.2-10.8,14.7-22.8,19.6-35.4L372.7,236.5z M346,278.2c-0.4,0-0.8,0-1.1-0.1l-47.5-6.8c-4.4-0.6-7.4-4.7-6.8-9.1c0,0,0,0,0,0
	l4.4-31.1c0.6-4.4-2.4-8.4-6.8-9c-2.1-0.3-4.2,0.2-5.9,1.5l-25.2,18.9c-3.5,2.7-8.5,1.9-11.2-1.6l0,0l-28.8-38.4
	c-2.7-3.5-1.9-8.5,1.6-11.2l25.1-18.9c3.5-2.7,4.3-7.7,1.6-11.2c-1.3-1.7-3.2-2.8-5.3-3.1l-31.1-4.4c-4.4-0.6-7.4-4.7-6.8-9
	c0,0,0,0,0,0l6.8-47.5c0.6-4.4,4.7-7.4,9-6.8c0,0,0,0,0,0l31.1,4.4c3.2,0.5,6.4-1.1,8-3.8c1.7-2.8,1.5-6.3-0.5-8.9L238,56.9
	c-2.7-3.5-1.9-8.5,1.6-11.2l4.5-3.4c-7.3-0.4-14.7-0.2-22,0.6c-79,9-135.8,80.4-126.7,159.4c4.9,43,28.9,81.6,65.4,104.9
	c13.3,8.3,21.5,22.8,21.7,38.4V378c0,13.3,10.7,24,24,24h64c13.3,0,24-10.7,24-24v-31.7c0.2-16,8.6-30.9,22.2-39.4
	c12.6-8.2,23.9-18.3,33.4-29.9C348.8,277.8,347.5,278.2,346,278.2z M246.5,378h-16v-24h16V378z M230.5,338c0-21.2-13-40.1-32.8-47.7
	c-57.6-22.5-86-87.5-63.5-145.1c8.7-22.3,24.4-41.2,44.6-54l8.5,13.5c-44.9,28.2-58.4,87.5-30.1,132.4
	c10.9,17.4,27.2,30.8,46.3,38.3c25.9,9.9,43,34.8,43,62.6H230.5z M206.5,442v8c0,8.8,7.2,16,16,16h32c8.8,0,16-7.2,16-16v-8H206.5z
	 M156.5,314c-4.7-3.1-9.3-6.4-13.7-10c-12.1,23.5-40.9,32.8-64.4,20.7c-16-8.2-26-24.7-26-42.7c0-24.2,18.1-44.6,42-47.6
	c-2.9-8.8-5.1-17.9-6.3-27.1l-1.4,6.7c-1.8,8.6-10.3,14.2-19,12.4c-2.1-0.4-4-1.3-5.8-2.5l-16.6-11.4l-14.6,14.5l11.5,16.7
	c5,7.3,3.2,17.2-4.1,22.3c-1.7,1.2-3.7,2-5.8,2.5l-19.9,4.2v19l19.9,4.2c8.6,1.8,14.2,10.3,12.4,19c-0.4,2.1-1.3,4-2.5,5.8L30.8,337
	l14.6,14.5L62,340.1c7.3-5,17.2-3.2,22.3,4.1c1.2,1.7,2,3.7,2.5,5.8l4.2,20h19l4.2-19.9c1.8-8.6,10.3-14.2,19-12.4
	c2.1,0.4,4,1.3,5.8,2.5l16.6,11.4l17.2-17.2C169.7,326,164,318.8,156.5,314z M206.5,410h64v16h-64V410z M438.3,137.9
	c-13.1-1.9-22.2-14-20.4-27.2c0.9-6.3,4.3-12,9.4-15.8L446,80.9l-19.2-25.6l-18.7,14.1c-10.6,8-25.6,5.8-33.6-4.8
	c-3.8-5.1-5.5-11.5-4.6-17.8l3.3-23.2l-31.7-4.5l-3.3,23.2c-1.9,13.1-14,22.2-27.2,20.4c-6.3-0.9-12-4.3-15.8-9.4l-14.1-18.8
	l-25.6,19.2l14.1,18.7c8,10.6,5.8,25.6-4.8,33.6c-5.1,3.8-11.5,5.5-17.8,4.6l-23.2-3.3l-4.5,31.7l23.2,3.3
	c13.1,1.9,22.2,14,20.4,27.2c-0.9,6.3-4.3,12-9.4,15.8l-18.7,14.1l19.2,25.6l18.7-14.1c10.6-8,25.6-5.8,33.6,4.8
	c3.8,5.1,5.5,11.5,4.6,17.8l-3.3,23.2l31.7,4.5l3.3-23.2c1.9-13.1,14-22.2,27.2-20.4c6.3,0.9,12,4.3,15.8,9.4l14.1,18.7l25.6-19.2
	l-14.1-18.8c-8-10.6-5.8-25.6,4.8-33.6c5.1-3.8,11.5-5.5,17.8-4.6l23.2,3.3l4.5-31.7L438.3,137.9z M340.4,188.1
	c-26.5,0-48-21.5-48-48s21.5-48,48-48s48,21.5,48,48C388.4,166.6,366.9,188.1,340.4,188.1z M390.5,298h56v16h-56V298z M377.4,352.1
	l10.2-12.3l48,40l-10.2,12.3L377.4,352.1z M342.5,362h16v56h-16V362z M4.6,138.2l64-16l3.9,15.5l-64,16L4.6,138.2z M17.8,56.5
	l9.3-13l56,40l-9.3,13L17.8,56.5z M86.4,4l15.5-4l16.4,64l-15.5,4L86.4,4z"/>
</svg>
